<svg xmlns="http://www.w3.org/2000/svg" width="295" height="157"><path d="M275.859 156.254s-1.862.732-5.886.732c-.64 0-9.163-.217-9.163-8.244v-36.274h9.027v33.833c0 1.22.285 1.83.475 2.17.64 1.139 2.76 1.6 5.547.732v7.038ZM73.573 122.286c-4.214 0-7.735 2.386-9.557 6.441l-.666-5.736h-7.749v33.223h9.027v-16.07c0-5.505 2.814-8.922 7.341-8.922.49 0 1.06.04 1.631.122l.245.027 1.414-9.004-.258-.027a13.515 13.515 0 0 0-1.428-.068m33.035 14.306c0-4.271-2.651-7.254-6.444-7.254-4.527 0-7.028 3.783-7.028 10.63 0 6.239 2.447 9.683 6.892 9.683 3.997 0 6.58-3.228 6.58-8.218v-4.84Zm9.027-25.208v44.844h-7.736l-.611-4.421c-1.836 3.309-5.343 5.18-9.748 5.18-4.037 0-7.381-1.546-9.91-4.61-2.46-3.052-3.711-7.147-3.711-12.164 0-11.092 5.41-17.98 14.138-17.98 3.602 0 6.743 1.287 8.55 3.484V111.37h9.028Zm5.79 44.857h9.028v-33.236h-9.027v33.236Zm34.422-20.164v-1.017c0-3.58-2.148-5.98-5.356-5.98-3.684 0-6.131 2.55-6.757 6.997h12.113m7.858 5.492h-20.147c.34 5.261 2.909 8.272 7.055 8.272 3.195 0 5.125-1.478 5.887-4.53l.15-.61 7.64 2.468-.15.53c-1.59 5.911-6.553 9.288-13.608 9.288-9.856 0-15.73-6.414-15.73-17.154 0-5.37 1.428-9.682 4.242-12.814 2.855-3.173 6.743-4.787 11.556-4.787 8.428 0 13.88 5.682 13.88 14.482 0 1.6-.34 3.39-.667 4.448l-.122.407Zm-37.861-31.148c-2.719 0-4.704 1.966-4.704 4.692s1.972 4.746 4.704 4.746c2.923 0 4.88-1.912 4.88-4.746 0-2.834-2.012-4.692-4.88-4.692m-85.115 31.27c0 4.95-2.243 7.892-5.995 7.892-2.964 0-4.595-1.871-4.595-5.288v-21.304h-9.027v23.08c0 6.63 4.147 10.916 10.55 10.916 4.554 0 7.925-1.817 9.774-5.261l.72 4.502h7.668V122.99h-9.095v18.686Zm178.523-29.209-7.137 30.728-7.015-30.728h-8.66l-6.987 30.606-7.165-30.606h-9.258l11.161 43.746h9.218l7.245-30.172 7.246 30.172h9.217l11.161-43.746h-9.013Zm28.059 23.595v-1.017c0-3.58-2.162-5.98-5.357-5.98-3.684 0-6.13 2.55-6.756 6.997h12.113m7.857 5.492h-20.147c.34 5.261 2.91 8.272 7.056 8.272 3.194 0 5.125-1.478 5.886-4.53l.15-.61 7.64 2.468-.15.53c-1.59 5.898-6.552 9.288-13.608 9.288-9.856 0-15.729-6.414-15.729-17.154 0-5.37 1.428-9.682 4.242-12.814 2.855-3.173 6.743-4.787 11.555-4.787 8.429 0 13.88 5.682 13.88 14.482 0 1.6-.34 3.39-.666 4.448l-.122.407ZM29.31 119.83c2.719 0 4.69-1.993 4.69-4.746 0-2.752-1.971-4.691-4.69-4.691-2.869 0-4.88 1.925-4.88 4.691 0 2.767 1.957 4.746 4.88 4.746m12.316 0c2.923 0 4.88-1.911 4.88-4.746 0-2.834-2.011-4.691-4.88-4.691-2.719 0-4.703 1.966-4.703 4.691 0 2.726 1.97 4.746 4.703 4.746M287.81 130.03H295v-7.024h-7.191v-8.882l-9.095.99v7.892h-3.399v7.024h3.399v16.57c0 6.713 3.956 10.401 11.134 10.401 3.29 0 5.152-.732 5.152-.732v-7.052c-5.642 1.573-7.178-.949-7.178-3.254v-15.933ZM295 45.752V23.771h-18.434V0L246.29 3.295v20.49h-9.299v21.98h9.15v29.236c0 9.316 2.773 16.435 8.17 21.1h-.014c5.424 4.692 12.888 6.184 19.848 6.577 9.448.57 16.477-.529 20.854-1.655v-21.94c-17.224 3.688-18.584-3.919-18.584-7.472V45.752H295ZM47.037 77.605c7.34 0 10.794-2.848 10.794-9.275 0-6.428-3.752-9.424-10.794-9.424H33.402V77.59h13.635M33.402 41.115H44.63c6.742 0 10.345-3.133 10.345-9.126 0-6.428-3.453-9.574-10.046-9.574H33.402v18.686Zm34.625 7.932c13.037 1.79 21.14 10.618 21.14 23.175 0 17.194-13.038 27.662-35.224 27.662H3.738V0h50.055c19.332 0 31.172 10.021 31.172 26.619 0 11.512-6.294 19.73-16.938 22.13v.298m-51.578 68.344c1.59 0 2.787.556 3.508 1.03l1.454-7.038c-1.93-.894-3.793-1.328-5.859-1.328-3.534 0-6.43 1.125-8.605 3.349-2.135 2.183-3.222 5.112-3.222 8.678v.923H0v7.024h3.725v26.198h9.027V130.03h5.37v-7.024h-5.37v-.855c0-2.17.639-4.76 3.697-4.76Zm134.123-95.003c-2.392-.34-4.595-.285-6.824.054-8.85 1.343-16.014 6.943-19.753 15.527l-2.12-14.184h-26.66v76.1h30.276s-.041-31.664 0-33.725c.04-2.264.258-3.81.57-4.936 2.883-10.766 15.077-7.973 17.972-7.146l6.567-31.69Z"/><path fill="#ff6200" d="M232.37 47.583c-2.99-23.514-18.746-28.287-40.117-28.409-21.37.122-37.126 4.895-40.117 28.409-1.523 11.906-1.51 26.7 2.895 37.846 5.764 14.944 22.676 17.425 37.222 17.425 14.546 0 31.458-2.481 37.222-17.425 4.39-11.146 4.418-25.94 2.895-37.846Zm-32.042 29.086c-1.726 1.004-4.907 1.546-8.075 1.56-3.168 0-6.349-.543-8.075-1.56-5.139-3.024-5.642-8.054-5.819-15.675.204-7.431.599-12.53 5.819-15.649 1.713-1.044 4.894-1.56 8.075-1.546 3.181 0 6.362.502 8.075 1.546 5.22 3.12 5.615 8.218 5.819 15.649-.19 7.634-.68 12.651-5.819 15.675Z"/></svg>
